<svg width="1440" height="800" viewBox="0 0 1440 800" fill="none" xmlns="http://www.w3.org/2000/svg">
<g clip-path="url(#clip0_1209_900)">
<rect width="1440" height="800" fill="#000B36"/>
<path fill-rule="evenodd" clip-rule="evenodd" d="M494.546 502.088L515.098 522.64L517.958 520.949C510.699 495.947 507.949 477.86 508.14 464.97C508.33 452.061 511.462 444.61 515.681 440.542C519.867 436.507 525.46 435.485 531.348 436.206C537.221 436.925 543.175 439.364 547.758 441.974C552.672 445.376 557.884 449.071 563.244 452.869C572.139 459.174 581.441 465.767 590.462 471.794C604.927 481.459 618.933 489.853 629.75 493.424C635.125 495.199 640.03 495.894 643.89 494.656C645.867 494.023 647.549 492.887 648.828 491.191C650.093 489.512 650.899 487.371 651.287 484.808C652.055 479.727 651.223 472.687 648.651 463.392C646.068 454.06 641.683 442.294 635.192 427.689C622.276 398.629 615.361 376.938 612.532 361.126C609.688 345.238 611.027 335.595 614.19 330.344C615.742 327.767 617.737 326.234 619.969 325.472C622.228 324.701 624.853 324.681 627.685 325.36C633.378 326.724 639.598 330.851 644.464 336.466C676.065 372.929 701.043 393.789 720.697 403.318C730.541 408.091 739.139 410.065 746.615 409.658C754.124 409.249 760.391 406.441 765.531 401.853C775.719 392.76 781.366 376.787 784.099 358.926C786.844 340.986 786.703 320.78 785.008 302.82L784.993 302.655L784.946 302.497C783.25 296.731 781.126 290.321 778.887 284.756C776.682 279.273 774.267 274.354 771.926 271.788C770.826 270.582 769.225 269.329 767.332 269.74C765.467 270.146 764.376 271.948 763.671 273.923C762.19 278.077 761.359 286.01 761.359 298.935C761.359 350.393 740.03 361.945 730.712 361.945L730.002 361.945L729.499 362.448C728.928 363.02 728.334 363.311 727.693 363.419C727.027 363.531 726.201 363.46 725.174 363.124C723.075 362.438 720.48 360.766 717.369 358.193C712.601 354.248 707.024 348.537 700.675 342.036C698.758 340.073 696.771 338.038 694.715 335.958C685.905 327.046 675.914 317.407 665.051 309.484C654.194 301.565 642.364 295.282 629.861 293.198L629.778 293.185L629.693 293.179C604.937 291.528 588.871 300.238 580.234 312.032C571.672 323.723 570.514 338.362 575.456 348.246C595.69 388.715 605.864 412.974 609.279 426.476C610.13 429.839 610.542 432.464 610.605 434.465C610.668 436.493 610.365 437.703 609.967 438.386C609.627 438.967 609.161 439.273 608.405 439.372C607.552 439.482 606.336 439.314 604.709 438.755C601.465 437.64 597.252 435.212 592.382 431.999C588.35 429.339 583.968 426.21 579.434 422.972C578.524 422.322 577.606 421.667 576.685 421.011C571.195 417.101 565.555 413.147 560.192 409.843C554.847 406.55 549.673 403.837 545.121 402.471C528.669 397.535 516.326 398.566 507.341 403.93C498.373 409.284 493.132 418.728 490.375 429.791C484.875 451.858 489.009 481.324 494.427 501.643L494.546 502.088ZM497.623 500.315C492.314 480.203 488.454 451.683 493.703 430.62C496.34 420.041 501.211 411.584 509.099 406.875C516.969 402.177 528.224 400.983 544.135 405.756C548.251 406.991 553.118 409.514 558.392 412.764C563.648 416.001 569.205 419.895 574.695 423.805C575.607 424.454 576.518 425.105 577.425 425.752C581.959 428.99 586.403 432.164 590.493 434.862C595.376 438.083 599.903 440.73 603.594 441.999C605.435 442.631 607.235 442.982 608.847 442.773C610.556 442.551 612.004 441.699 612.929 440.115C613.794 438.633 614.105 436.672 614.033 434.358C613.96 432.016 613.488 429.126 612.605 425.635C609.085 411.723 598.743 387.15 578.524 346.712C574.231 338.126 575.096 324.853 583.001 314.058C590.823 303.378 605.642 295.035 629.381 296.596C641.12 298.571 652.421 304.516 663.03 312.255C673.658 320.007 683.489 329.481 692.276 338.369C694.274 340.39 696.223 342.387 698.117 344.327C704.499 350.863 710.26 356.763 715.182 360.835C718.367 363.47 721.371 365.49 724.108 366.384C725.498 366.838 726.899 367.03 728.26 366.802C729.416 366.608 730.465 366.124 731.389 365.361C743.754 364.843 764.789 350.092 764.789 298.935C764.789 285.971 765.645 278.599 766.902 275.076C767.498 273.405 767.995 273.127 768.057 273.095C768.108 273.101 768.526 273.151 769.393 274.1C771.265 276.153 773.486 280.521 775.705 286.036C777.871 291.419 779.942 297.652 781.609 303.306C783.271 321.038 783.39 340.879 780.708 358.408C778.005 376.07 772.511 391.026 763.247 399.294C758.661 403.387 753.126 405.868 746.429 406.233C739.699 406.6 731.687 404.835 722.194 400.232C703.173 391.009 678.563 370.573 647.056 334.22C641.851 328.214 635.045 323.597 628.484 322.024C625.188 321.234 621.879 321.196 618.861 322.226C615.817 323.265 613.194 325.349 611.252 328.574C607.426 334.925 606.272 345.62 609.155 361.731C612.052 377.918 619.083 399.889 632.057 429.082C638.511 443.603 642.824 455.199 645.345 464.307C647.876 473.454 648.555 479.934 647.895 484.295C647.569 486.454 646.926 488.016 646.089 489.126C645.265 490.219 644.192 490.958 642.843 491.39C640.05 492.286 636.018 491.881 630.825 490.167C620.505 486.76 606.851 478.619 592.367 468.942C583.372 462.932 574.159 456.402 565.301 450.123C559.909 446.301 554.649 442.572 549.649 439.111L549.588 439.069L549.524 439.032C544.677 436.262 538.254 433.596 531.765 432.802C525.264 432.006 518.485 433.074 513.3 438.073C508.147 443.04 504.907 451.568 504.71 464.92C504.53 477.142 506.893 493.613 512.88 515.571L497.623 500.315Z" fill="url(#paint0_linear_1209_900)"/>
<path fill-rule="evenodd" clip-rule="evenodd" d="M1053.05 547.462L1070.56 529.951L1073.35 531.839C1065.09 551.121 1060.96 564.754 1059.6 574.191C1058.23 583.731 1059.76 588.485 1062.04 590.66C1064.29 592.795 1067.93 593.039 1072.42 591.8C1076.82 590.59 1081.5 588.099 1085.2 585.628C1089.22 582.543 1093.5 579.21 1097.89 575.783C1105.18 570.1 1112.8 564.16 1120.15 558.667C1131.94 549.86 1143.23 542.049 1151.61 538.16C1153.71 537.182 1155.68 536.431 1157.46 535.976C1159.22 535.526 1160.91 535.339 1162.4 535.595C1163.95 535.86 1165.3 536.608 1166.22 537.96C1167.09 539.257 1167.44 540.925 1167.43 542.816C1167.4 546.565 1165.94 551.895 1162.97 559.025C1159.98 566.205 1155.38 575.387 1148.89 586.905C1135.98 609.836 1128.35 626.629 1124.43 638.605C1122.47 644.593 1121.44 649.325 1121.13 652.985C1120.82 656.668 1121.24 659.118 1121.99 660.659C1122.71 662.112 1123.75 662.832 1125.06 663.085C1126.47 663.357 1128.31 663.11 1130.49 662.273C1134.85 660.602 1139.95 656.816 1144.22 652.077C1171.75 621.527 1192.57 603.264 1208.14 593.965C1223.61 584.729 1234.58 583.972 1241.65 590.013C1245.08 592.95 1247.33 597.315 1248.72 602.446C1250.11 607.587 1250.68 613.634 1250.64 620.113C1250.57 633.071 1248.1 648.015 1244.76 661.457L1244.73 661.594L1244.67 661.723C1242.75 666.172 1240.43 671.143 1238.14 675.503C1235.87 679.81 1233.53 683.693 1231.53 685.827C1231.02 686.371 1230.48 686.861 1229.91 687.219C1229.37 687.566 1228.64 687.89 1227.81 687.839C1226.89 687.782 1226.17 687.287 1225.68 686.629C1225.24 686.024 1224.98 685.269 1224.82 684.489C1224.49 682.92 1224.43 680.679 1224.62 677.727C1224.81 674.743 1225.26 670.915 1226.02 666.115C1229.02 647.191 1226.87 636.379 1223.34 630.518C1219.87 624.768 1214.99 623.62 1211.68 624.144L1210.81 624.28L1210.2 623.663C1209.99 623.455 1209.47 623.129 1207.78 623.909C1206.14 624.665 1204.01 626.214 1201.41 628.482C1197.43 631.954 1192.64 636.825 1187.2 642.359C1185.56 644.028 1183.86 645.757 1182.11 647.526C1174.58 655.12 1166.1 663.379 1157.18 670.475C1148.28 677.561 1138.84 683.566 1129.37 686.563L1129.3 686.586L1129.22 686.602C1110.78 690.706 1099.48 686.244 1094.18 678.073C1088.98 670.071 1090.02 659.178 1094.76 651.406C1114.39 619.216 1124.72 600.144 1128.81 589.794C1129.83 587.215 1130.44 585.245 1130.71 583.788C1131 582.261 1130.87 581.583 1130.76 581.369C1130.76 581.366 1130.76 581.363 1130.76 581.36C1130.72 581.35 1130.64 581.337 1130.5 581.341C1129.97 581.356 1129.1 581.597 1127.81 582.21C1125.28 583.414 1121.88 585.703 1117.91 588.641C1114.63 591.074 1111.03 593.894 1107.31 596.809C1106.56 597.394 1105.81 597.984 1105.05 598.574C1096.12 605.566 1086.59 612.866 1079.66 615.9C1067.04 621.419 1057.86 622.232 1051.54 619.167C1045.11 616.053 1042.29 609.286 1041.54 601.391C1040.79 593.459 1042.07 583.934 1044.29 574.516C1046.52 565.072 1049.73 555.618 1052.92 547.782L1053.05 547.462ZM1055.97 549.397C1052.87 557.035 1049.78 566.19 1047.63 575.303C1045.44 584.569 1044.26 593.675 1044.96 601.067C1045.66 608.494 1048.21 613.742 1053.03 616.08C1057.96 618.466 1065.91 618.168 1078.28 612.758C1084.73 609.937 1093.87 602.969 1102.94 595.873C1103.69 595.287 1104.44 594.701 1105.18 594.118C1108.9 591.203 1112.54 588.349 1115.87 585.885C1119.84 582.945 1123.47 580.474 1126.33 579.113C1127.74 578.443 1129.15 577.949 1130.4 577.913C1131.05 577.894 1131.75 577.995 1132.39 578.338C1133.06 578.693 1133.56 579.243 1133.87 579.912C1134.45 581.146 1134.4 582.734 1134.08 584.423C1133.75 586.184 1133.06 588.382 1132 591.055C1127.79 601.72 1117.3 621.033 1097.68 653.192C1093.47 660.109 1092.74 669.554 1097.06 676.205C1101.26 682.679 1110.74 687.183 1128.4 683.271C1137.27 680.449 1146.31 674.747 1155.05 667.791C1163.8 660.828 1172.16 652.688 1179.67 645.111C1181.38 643.385 1183.05 641.684 1184.68 640.031C1190.14 634.472 1195.06 629.464 1199.16 625.896C1201.8 623.592 1204.23 621.767 1206.34 620.794C1208.14 619.966 1210.22 619.549 1211.91 620.659C1216.46 620.227 1222.3 622.139 1226.28 628.748C1230.42 635.626 1232.45 647.409 1229.41 666.651C1228.66 671.392 1228.22 675.106 1228.04 677.945C1227.86 680.817 1227.94 682.681 1228.18 683.783C1228.21 683.942 1228.24 684.074 1228.28 684.182C1228.48 684.027 1228.73 683.8 1229.02 683.484C1230.67 681.723 1232.83 678.22 1235.1 673.904C1237.33 669.685 1239.58 664.851 1241.47 660.492C1244.75 647.24 1247.14 632.642 1247.21 620.095C1247.24 613.799 1246.69 608.084 1245.41 603.342C1244.12 598.588 1242.14 594.947 1239.42 592.62C1234.17 588.132 1225.13 587.816 1209.9 596.91C1194.78 605.942 1174.24 623.897 1146.77 654.374C1142.26 659.375 1136.74 663.553 1131.72 665.476C1129.22 666.435 1126.68 666.893 1124.41 666.453C1122.04 665.995 1120.1 664.586 1118.92 662.171C1117.77 659.843 1117.38 656.684 1117.72 652.694C1118.06 648.681 1119.16 643.675 1121.17 637.536C1125.19 625.258 1132.94 608.244 1145.9 585.222C1152.35 573.763 1156.88 564.712 1159.8 557.705C1162.75 550.648 1163.98 545.836 1164 542.792C1164.01 541.286 1163.72 540.394 1163.37 539.881C1163.06 539.423 1162.6 539.109 1161.82 538.976C1160.99 538.833 1159.83 538.911 1158.31 539.3C1156.8 539.684 1155.04 540.347 1153.05 541.271C1145.04 544.99 1134.01 552.591 1122.21 561.415C1114.87 566.894 1107.32 572.785 1100.05 578.447C1095.64 581.892 1091.33 585.253 1087.24 588.384L1087.2 588.417L1087.15 588.448C1083.27 591.043 1078.23 593.759 1073.33 595.107C1068.53 596.431 1063.29 596.576 1059.68 593.145C1056.11 589.753 1054.8 583.473 1056.21 573.703C1057.42 565.245 1060.72 553.792 1066.87 538.494L1055.97 549.397Z" fill="url(#paint1_linear_1209_900)"/>
<path fill-rule="evenodd" clip-rule="evenodd" d="M-182.258 239.579L-161.842 259.996L-160.174 259.01C-167.443 233.975 -170.212 215.811 -170.021 202.821C-169.829 189.819 -166.675 182.143 -162.261 177.889C-157.867 173.652 -152.026 172.621 -146.011 173.357C-140.004 174.093 -133.946 176.583 -129.306 179.229C-124.371 182.646 -119.144 186.351 -113.773 190.158C-104.885 196.457 -95.602 203.037 -86.5866 209.061C-72.1176 218.728 -58.1848 227.069 -47.4717 230.606C-42.1343 232.368 -37.411 233.003 -33.7735 231.837C-31.9274 231.245 -30.3723 230.191 -29.1886 228.621C-28.0127 227.061 -27.2407 225.041 -26.8657 222.563C-26.1198 217.631 -26.9198 210.708 -29.4838 201.444C-32.054 192.158 -36.4237 180.428 -42.907 165.84C-55.8348 136.753 -62.7741 115.003 -65.6177 99.1133C-68.4693 83.1783 -67.1689 73.3164 -63.8678 67.8357C-62.2345 65.124 -60.1085 63.4757 -57.7072 62.6564C-55.2903 61.8317 -52.5223 61.8233 -49.5942 62.5253C-43.7199 63.9334 -37.3779 68.1623 -32.4406 73.8592C-0.859691 110.299 24.0419 131.07 43.564 140.536C53.3349 145.273 61.8103 147.204 69.1309 146.805C76.4705 146.405 82.5853 143.665 87.6097 139.181C97.6047 130.26 103.22 114.499 105.947 96.6793C108.68 78.8136 108.542 58.6693 106.851 40.7479L106.842 40.652L106.815 40.5596C105.123 34.8084 103.006 28.4217 100.779 22.8841C98.5701 17.3944 96.1962 12.5902 93.9528 10.1313C92.8717 8.94645 91.5212 7.97784 90.0387 8.30012C88.5721 8.61894 87.5957 10.0727 86.8995 12.0242C85.4645 16.0467 84.6291 23.8631 84.6291 36.7964C84.6291 88.3887 63.1971 100.521 53.2666 100.521L52.8524 100.521L52.5595 100.814C51.8888 101.485 51.1617 101.852 50.3656 101.985C49.5546 102.121 48.6093 102.025 47.5061 101.664C45.2745 100.935 42.5937 99.1909 39.4673 96.6044C34.6672 92.6332 29.0521 86.8829 22.6964 80.3742C20.7842 78.416 18.8051 76.3892 16.7609 74.3215C7.95558 65.415 -2.00211 55.8098 -12.8159 47.9222C-23.6261 40.037 -35.352 33.823 -47.7018 31.7647L-47.7505 31.7566L-47.7997 31.7533C-72.3538 30.1163 -88.1658 38.751 -96.6345 50.315C-105.059 61.8192 -106.156 76.1741 -101.35 85.7873C-81.1186 126.249 -70.9101 150.574 -67.473 164.162C-66.6155 167.551 -66.1906 170.232 -66.126 172.303C-66.0609 174.391 -66.3655 175.758 -66.8614 176.607C-67.3229 177.397 -67.9936 177.818 -68.9483 177.942C-69.9598 178.073 -71.2974 177.867 -72.9687 177.292C-76.3059 176.145 -80.5846 173.671 -85.4569 170.457C-89.5017 167.789 -93.8958 164.651 -98.4297 161.413C-99.3398 160.763 -100.256 160.109 -101.175 159.454C-106.665 155.544 -112.288 151.603 -117.629 148.313C-122.959 145.029 -128.069 142.355 -132.53 141.017C-148.869 136.115 -160.985 137.18 -169.738 142.405C-178.481 147.625 -183.645 156.863 -186.377 167.825C-191.832 189.715 -187.736 219.039 -182.328 239.32L-182.258 239.579ZM-180.464 238.545C-185.809 218.384 -189.746 189.612 -184.436 168.309C-181.775 157.628 -176.826 148.966 -168.713 144.123C-160.61 139.285 -149.129 138.125 -133.105 142.932C-128.898 144.194 -123.967 146.757 -118.678 150.016C-113.4 153.267 -107.826 157.173 -102.336 161.083C-101.421 161.734 -100.509 162.386 -99.6015 163.034C-95.0678 166.271 -90.6369 169.436 -86.5583 172.126C-81.6786 175.346 -77.2165 177.947 -73.6189 179.183C-71.8228 179.801 -70.1445 180.114 -68.6909 179.925C-67.1804 179.729 -65.9369 178.99 -65.1343 177.616C-64.366 176.3 -64.0566 174.496 -64.1269 172.241C-64.1978 169.97 -64.6577 167.135 -65.534 163.671C-69.0317 149.845 -79.3387 125.337 -99.5608 84.8929C-103.989 76.0363 -103.063 62.4785 -95.0209 51.4967C-87.0278 40.582 -71.943 32.1611 -47.982 33.7456C-36.0774 35.7409 -24.6604 41.7581 -13.9945 49.538C-3.31752 57.3259 6.54682 66.8348 15.3386 75.7277C17.3488 77.761 19.3058 79.7652 21.2048 81.7101C27.58 88.2393 33.3024 94.0998 38.1925 98.1454C41.3616 100.767 44.281 102.715 46.8849 103.565C48.1993 103.995 49.4806 104.161 50.6962 103.957C51.7969 103.773 52.7928 103.293 53.6687 102.516C65.4034 102.203 86.6291 88.1717 86.6291 36.7964C86.6291 23.8398 87.4792 16.3514 88.7832 12.6963C89.4565 10.809 90.113 10.3307 90.4636 10.2545C90.7983 10.1817 91.4495 10.355 92.4753 11.4794C94.4457 13.6389 96.7071 18.1221 98.9231 23.6306C101.108 29.0617 103.194 35.3453 104.869 41.0315C106.541 58.8194 106.667 78.7512 103.97 96.3767C101.26 114.08 95.7341 129.249 86.2779 137.689C81.5766 141.885 75.8884 144.434 69.022 144.808C62.1366 145.183 54.0031 143.374 44.4365 138.736C25.2838 129.45 0.59665 108.925 -30.9292 72.5493C-36.0641 66.6245 -42.7476 62.1098 -49.1279 60.5804C-52.3271 59.8135 -55.4937 59.7879 -58.3531 60.7635C-61.2281 61.7445 -63.7201 63.7141 -65.581 66.8038C-69.2684 72.9258 -70.4612 83.4011 -67.5864 99.4656C-64.7036 115.575 -57.6968 137.488 -44.7346 166.652C-38.273 181.191 -33.9453 192.822 -31.4114 201.977C-28.8713 211.155 -28.1607 217.752 -28.8432 222.263C-29.1826 224.506 -29.8596 226.189 -30.7857 227.417C-31.7041 228.636 -32.9041 229.458 -34.3842 229.932C-37.3995 230.899 -41.6137 230.434 -46.8447 228.707C-57.2683 225.266 -70.9953 217.072 -85.4755 207.398C-94.4759 201.384 -103.708 194.841 -112.573 188.556C-117.963 184.736 -123.218 181.011 -128.203 177.56L-128.239 177.535L-128.276 177.514C-133.07 174.775 -139.401 172.152 -145.767 171.372C-152.14 170.592 -158.672 171.651 -163.649 176.449C-168.607 181.228 -171.825 189.532 -172.02 202.791C-172.207 215.399 -169.665 232.618 -163.154 255.855L-180.464 238.545Z" fill="#0100FE"/>
<path d="M869.01 465.545C828.54 462.173 736.922 475.381 696.171 482.407C680.714 502.08 659.074 537.21 696.171 520.348C733.268 503.485 826.854 499.27 869.01 499.27V465.545Z" fill="url(#paint2_linear_1209_900)"/>
<path d="M110.017 659.369C103.204 638.105 69.1177 599.25 52.9264 582.481C31.5578 583.697 -5.15177 588.779 18.9584 599.382C43.0685 609.986 69.5807 653.807 79.8231 674.392L110.017 659.369Z" fill="url(#paint3_linear_1209_900)"/>
<path d="M872.409 672.478C889.534 658.15 912.669 611.93 922.096 590.611C912.913 571.278 894.365 539.194 893.635 565.522C892.905 591.851 862.314 632.929 847.11 650.177L872.409 672.478Z" fill="url(#paint4_linear_1209_900)"/>
<path d="M486.758 281.533L530.568 306.826L505.274 350.636L461.464 325.342L486.758 281.533Z" fill="url(#paint5_linear_1209_900)"/>
<path d="M208.57 241.394L259.013 245.214L255.193 295.657L204.751 291.837L208.57 241.394Z" fill="url(#paint6_linear_1209_900)"/>
<path d="M584.316 179.365L620.594 214.621L585.338 250.899L549.061 215.643L584.316 179.365Z" fill="url(#paint7_linear_1209_900)"/>
<path d="M391.148 662.709L422.297 692.98L392.026 724.128L360.878 693.857L391.148 662.709Z" fill="url(#paint8_diamond_1209_900)"/>
<path d="M959.27 458L990.418 488.271L960.147 519.419L928.999 489.148L959.27 458Z" fill="url(#paint9_diamond_1209_900)"/>
<path d="M461.504 171.132L492.652 201.403L462.381 232.551L431.233 202.28L461.504 171.132Z" fill="url(#paint10_linear_1209_900)"/>
<path fill-rule="evenodd" clip-rule="evenodd" d="M202.535 722.869L247.452 748.802L221.519 793.718L176.602 767.786L202.535 722.869ZM205.621 734.386L188.12 764.7L218.433 782.201L235.935 751.888L205.621 734.386Z" fill="url(#paint11_linear_1209_900)"/>
<path d="M312.531 730.883L355.399 723.893L362.39 766.761L319.522 773.751L312.531 730.883Z" fill="url(#paint12_linear_1209_900)"/>
<path fill-rule="evenodd" clip-rule="evenodd" d="M670.257 614.059L720.356 600.635L733.779 650.733L683.681 664.157L670.257 614.059ZM680.583 620.02L689.643 653.831L723.453 644.771L714.394 610.961L680.583 620.02Z" fill="url(#paint13_linear_1209_900)"/>
<path d="M74.686 391.27C216.33 381.152 170.239 446.073 129.489 479.797C114.032 488.228 89.8621 498.346 116.842 471.366C143.822 444.386 139.325 426.4 133.704 420.779C133.704 407.289 74.686 424.995 45.1768 403.917C18.197 380.309 30.7413 353.926 45.1768 349.114C171.645 306.958 81.3105 315.389 57.8236 302.742C13.9814 279.135 56.4184 242.319 83.1172 226.862H104.195C36.7456 263.959 63.4444 281.664 78.9016 285.88C125.273 294.311 204.526 302.742 116.842 336.467C29.1576 370.192 52.0791 392.885 74.686 391.27Z" fill="#0100FE"/>
<path fill-rule="evenodd" clip-rule="evenodd" d="M345.362 264.434L357.755 260.569L357.65 258.517C346.34 256.219 338.696 253.578 333.706 250.866C328.705 248.148 326.5 245.433 325.803 243.045C325.114 240.684 325.821 238.368 327.288 236.247C328.749 234.133 330.896 232.323 332.842 231.074C335.183 229.849 337.703 228.566 340.296 227.245C344.611 225.046 349.129 222.745 353.36 220.44C360.139 216.748 366.36 212.956 370.027 209.409C371.844 207.65 373.187 205.81 373.513 203.941C373.681 202.977 373.576 202.018 373.144 201.107C372.719 200.207 372.005 199.413 371.049 198.711C369.159 197.324 366.171 196.189 361.974 195.281C357.753 194.368 352.208 193.664 345.121 193.204C331.049 192.291 321.124 190.539 314.357 188.402C307.544 186.25 304.119 183.764 302.765 181.534C302.106 180.449 301.932 179.419 302.081 178.459C302.233 177.482 302.734 176.496 303.557 175.554C305.216 173.656 308.059 172.088 311.226 171.343C332.085 166.436 345.481 160.907 353.328 155.11C357.261 152.204 359.85 149.195 361.258 146.113C362.675 143.013 362.868 139.901 362.108 136.872C360.608 130.888 355.421 125.322 348.95 120.555C342.439 115.759 334.444 111.638 327.02 108.595L326.925 108.556L326.825 108.536C324.203 108.013 321.236 107.524 318.574 107.256C315.967 106.993 313.486 106.92 311.936 107.327C311.223 107.514 310.247 107.922 309.971 108.92C309.701 109.902 310.291 110.813 310.929 111.504C312.296 112.986 315.288 114.969 320.365 117.632C340.542 128.214 340.49 138.829 338.688 142.264L338.484 142.653L338.615 143.073C338.704 143.359 338.695 143.589 338.625 143.8C338.551 144.027 338.386 144.297 338.066 144.609C337.405 145.251 336.257 145.909 334.611 146.598C332.094 147.653 328.721 148.661 324.861 149.815C323.692 150.164 322.478 150.527 321.229 150.909C315.908 152.535 310.04 154.481 304.663 157.128C299.29 159.774 294.336 163.154 290.901 167.691L290.869 167.732L290.842 167.777C285.045 177.24 285.135 185.459 288.042 191.393C290.915 197.255 296.524 200.807 301.555 200.904C321.636 201.294 333.238 202.297 339.213 203.729C340.699 204.085 341.793 204.458 342.566 204.833C343.353 205.216 343.709 205.553 343.852 205.782C343.957 205.95 343.979 206.098 343.891 206.337C343.782 206.632 343.503 207.038 342.962 207.548C341.885 208.565 340.091 209.705 337.826 210.956C335.954 211.99 333.827 213.064 331.62 214.179C331.176 214.403 330.729 214.629 330.28 214.856C327.611 216.208 324.887 217.614 322.473 219.046C320.07 220.472 317.91 221.962 316.407 223.498C311.04 228.983 308.844 234.124 309.107 238.875C309.368 243.614 312.061 247.689 315.874 251.083C323.47 257.844 335.965 262.308 345.085 264.371L345.362 264.434ZM345.276 262.239C336.302 260.176 324.403 255.835 317.284 249.498C313.701 246.31 311.443 242.72 311.224 238.758C311.006 234.809 312.801 230.217 317.923 224.982C319.229 223.647 321.197 222.27 323.555 220.87C325.902 219.478 328.57 218.1 331.238 216.748C331.681 216.524 332.124 216.301 332.565 216.078C334.772 214.963 336.942 213.868 338.851 212.813C341.125 211.557 343.128 210.308 344.418 209.091C345.061 208.484 345.607 207.811 345.881 207.072C346.175 206.276 346.136 205.432 345.65 204.657C345.203 203.942 344.439 203.385 343.492 202.925C342.529 202.458 341.273 202.042 339.708 201.667C333.478 200.173 321.656 199.173 301.596 198.783C297.463 198.703 292.517 195.705 289.947 190.459C287.415 185.292 287.168 177.861 292.623 168.93C295.78 164.78 300.398 161.593 305.6 159.031C310.815 156.463 316.547 154.558 321.849 152.937C323.049 152.57 324.231 152.217 325.381 151.873C329.27 150.711 332.799 149.657 335.431 148.555C337.13 147.843 338.587 147.061 339.545 146.129C340.034 145.653 340.431 145.102 340.641 144.462C340.81 143.947 340.844 143.415 340.747 142.88C343.138 137.651 341.393 126.266 321.35 115.753C316.251 113.079 313.575 111.244 312.488 110.066C312.242 109.799 312.128 109.621 312.075 109.518C312.151 109.481 312.275 109.431 312.474 109.378C313.609 109.081 315.733 109.101 318.361 109.366C320.902 109.623 323.757 110.089 326.31 110.596C333.599 113.591 341.388 117.619 347.692 122.263C354.063 126.956 358.737 132.147 360.051 137.387C360.698 139.971 360.537 142.588 359.329 145.232C358.113 147.893 355.807 150.641 352.068 153.404C344.571 158.942 331.512 164.392 310.74 169.278C307.262 170.096 303.983 171.845 301.96 174.158C300.943 175.322 300.214 176.666 299.986 178.133C299.755 179.618 300.05 181.15 300.952 182.634C302.718 185.543 306.772 188.23 313.718 190.424C320.71 192.633 330.822 194.401 344.984 195.321C352.014 195.777 357.445 196.471 361.525 197.354C365.629 198.241 368.267 199.3 369.794 200.421C370.547 200.973 370.99 201.512 371.227 202.014C371.458 202.503 371.522 203.014 371.423 203.577C371.216 204.763 370.284 206.209 368.552 207.885C365.118 211.207 359.137 214.879 352.345 218.578C348.131 220.873 343.673 223.144 339.383 225.329C336.768 226.661 334.215 227.962 331.817 229.216L331.777 229.238L331.738 229.262C329.628 230.61 327.222 232.611 325.543 235.04C323.859 237.476 322.837 240.454 323.767 243.639C324.689 246.797 327.452 249.881 332.693 252.729C337.315 255.241 343.966 257.628 353.272 259.745L345.276 262.239Z" fill="#0100FE"/>
<path d="M624 2H1456.5V329C1456.5 181 921.5 19 624 2Z" fill="url(#paint14_linear_1209_900)"/>
<path d="M734 126H1456.5V453C1456.5 305 1031.5 143 734 126Z" fill="#0100FE"/>
<path d="M824 250H1456.5V577C1456.5 429 1121.5 267 824 250Z" fill="#0100FE"/>
<path d="M934 374H1456.5V701C1456.5 553 1231.5 391 934 374Z" fill="#0100FE"/>
<path d="M1457 824L1434.32 754.211L1360.94 754.211L1420.31 711.079L1397.63 641.289L1457 684.421L1516.37 641.289L1493.69 711.079L1553.06 754.211L1479.68 754.211L1457 824Z" fill="#0100FE"/>
<path d="M1457 824L1434.32 754.211L1360.94 754.211L1420.31 711.079L1397.63 641.289L1457 684.421L1516.37 641.289L1493.69 711.079L1553.06 754.211L1479.68 754.211L1457 824Z" fill="url(#paint15_diamond_1209_900)"/>
</g>
<defs>
<linearGradient id="paint0_linear_1209_900" x1="737.837" y1="259.353" x2="572.255" y2="521.355" gradientUnits="userSpaceOnUse">
<stop stop-color="#0100FE"/>
<stop offset="1" stop-color="#0100FE" stop-opacity="0"/>
</linearGradient>
<linearGradient id="paint1_linear_1209_900" x1="1204.5" y1="698.5" x2="1091" y2="540.5" gradientUnits="userSpaceOnUse">
<stop stop-color="#0100FE"/>
<stop offset="1" stop-color="#0100FE" stop-opacity="0"/>
</linearGradient>
<linearGradient id="paint2_linear_1209_900" x1="772.349" y1="465.004" x2="772.349" y2="524.795" gradientUnits="userSpaceOnUse">
<stop stop-color="#0100FE"/>
<stop offset="1" stop-color="#0100FE" stop-opacity="0"/>
</linearGradient>
<linearGradient id="paint3_linear_1209_900" x1="87.0164" y1="611.927" x2="33.485" y2="638.562" gradientUnits="userSpaceOnUse">
<stop stop-color="#0100FE"/>
<stop offset="1" stop-color="#0100FE" stop-opacity="0"/>
</linearGradient>
<linearGradient id="paint4_linear_1209_900" x1="907.677" y1="633.287" x2="862.824" y2="593.749" gradientUnits="userSpaceOnUse">
<stop stop-color="#0100FE"/>
<stop offset="1" stop-color="#0100FE" stop-opacity="0"/>
</linearGradient>
<linearGradient id="paint5_linear_1209_900" x1="508.663" y1="294.179" x2="483.369" y2="337.989" gradientUnits="userSpaceOnUse">
<stop stop-color="#0100FE"/>
<stop offset="1" stop-color="#0100FE" stop-opacity="0"/>
</linearGradient>
<linearGradient id="paint6_linear_1209_900" x1="233.792" y1="243.304" x2="229.972" y2="293.747" gradientUnits="userSpaceOnUse">
<stop stop-color="#0100FE"/>
<stop offset="1" stop-color="#0100FE" stop-opacity="0"/>
</linearGradient>
<linearGradient id="paint7_linear_1209_900" x1="602.455" y1="196.993" x2="567.2" y2="233.271" gradientUnits="userSpaceOnUse">
<stop stop-color="#0100FE"/>
<stop offset="1" stop-color="#0100FE" stop-opacity="0"/>
</linearGradient>
<radialGradient id="paint8_diamond_1209_900" cx="0" cy="0" r="1" gradientUnits="userSpaceOnUse" gradientTransform="translate(391.587 693.419) rotate(-180) scale(35.2083)">
<stop stop-color="#0100FF"/>
<stop offset="0.817215" stop-color="#000B36"/>
</radialGradient>
<radialGradient id="paint9_diamond_1209_900" cx="0" cy="0" r="1" gradientUnits="userSpaceOnUse" gradientTransform="translate(959.708 488.71) rotate(-180) scale(35.2083)">
<stop stop-color="#1E1DF1"/>
<stop offset="0.817215" stop-color="#000B36"/>
</radialGradient>
<linearGradient id="paint10_linear_1209_900" x1="469.5" y1="233" x2="446.5" y2="180.5" gradientUnits="userSpaceOnUse">
<stop stop-color="#0100FE"/>
<stop offset="1" stop-color="#0100FE" stop-opacity="0"/>
</linearGradient>
<linearGradient id="paint11_linear_1209_900" x1="222.886" y1="739.486" x2="201.169" y2="777.101" gradientUnits="userSpaceOnUse">
<stop stop-color="#0100FE"/>
<stop offset="1" stop-color="#0100FE" stop-opacity="0"/>
</linearGradient>
<linearGradient id="paint12_linear_1209_900" x1="333.965" y1="727.388" x2="340.956" y2="770.256" gradientUnits="userSpaceOnUse">
<stop stop-color="#0100FE"/>
<stop offset="1" stop-color="#0100FE" stop-opacity="0"/>
</linearGradient>
<linearGradient id="paint13_linear_1209_900" x1="696.398" y1="611.419" x2="707.639" y2="653.373" gradientUnits="userSpaceOnUse">
<stop stop-color="#0100FE"/>
<stop offset="1" stop-color="#0100FE" stop-opacity="0"/>
</linearGradient>
<linearGradient id="paint14_linear_1209_900" x1="1040.25" y1="329" x2="1040.25" y2="2" gradientUnits="userSpaceOnUse">
<stop stop-color="#0100FE"/>
<stop offset="1" stop-color="#0100FE"/>
</linearGradient>
<radialGradient id="paint15_diamond_1209_900" cx="0" cy="0" r="1" gradientUnits="userSpaceOnUse" gradientTransform="translate(1457 722.945) rotate(179.295) scale(101.008 193.899)">
<stop offset="0.180503" stop-color="#F81717"/>
<stop offset="0.402374" stop-color="#EBCD62"/>
<stop offset="0.625816" stop-color="#FEBD16"/>
<stop offset="0.875655" stop-color="#ED0AAE"/>
</radialGradient>
<clipPath id="clip0_1209_900">
<rect width="1440" height="800" fill="white"/>
</clipPath>
</defs>
</svg>
